<?xml version="1.0" encoding="UTF-8" standalone="no"?>
<!-- Created with Inkscape (http://www.inkscape.org/) -->

<svg
   width="81.30471mm"
   height="81.30471mm"
   viewBox="0 0 81.30471 81.30471"
   version="1.1"
   id="svg1"
   inkscape:version="1.3.2 (091e20e, 2023-11-25)"
   sodipodi:docname="Logo.svg"
   inkscape:export-filename="Logo.svg"
   inkscape:export-xdpi="512"
   inkscape:export-ydpi="512"
   xmlns:inkscape="http://www.inkscape.org/namespaces/inkscape"
   xmlns:sodipodi="http://sodipodi.sourceforge.net/DTD/sodipodi-0.dtd"
   xmlns:xlink="http://www.w3.org/1999/xlink"
   xmlns="http://www.w3.org/2000/svg"
   xmlns:svg="http://www.w3.org/2000/svg">
  <sodipodi:namedview
     id="namedview1"
     pagecolor="#505050"
     bordercolor="#ffffff"
     borderopacity="1"
     inkscape:showpageshadow="0"
     inkscape:pageopacity="0"
     inkscape:pagecheckerboard="1"
     inkscape:deskcolor="#505050"
     inkscape:document-units="mm"
     inkscape:zoom="0.8979798"
     inkscape:cx="216.0405"
     inkscape:cy="202.67717"
     inkscape:window-width="1312"
     inkscape:window-height="704"
     inkscape:window-x="54"
     inkscape:window-y="27"
     inkscape:window-maximized="1"
     inkscape:current-layer="svg1"
     showguides="true"
     inkscape:export-bgcolor="#ffffff00">
    <inkscape:page
       x="-5.4482842e-07"
       y="4.877144e-08"
       width="81.30471"
       height="81.30471"
       id="page1"
       margin="0"
       bleed="0" />
  </sodipodi:namedview>
  <defs
     id="defs1">
    <linearGradient
       id="linearGradient118"
       inkscape:collect="always">
      <stop
         style="stop-color:#ffffff;stop-opacity:1;"
         offset="0.36200643"
         id="stop118" />
      <stop
         style="stop-color:#ffffff;stop-opacity:0.63137255;"
         offset="0.49553305"
         id="stop120" />
      <stop
         style="stop-color:#ffffff;stop-opacity:0.15483156;"
         offset="1"
         id="stop119" />
    </linearGradient>
    <linearGradient
       id="swatch34"
       inkscape:swatch="solid">
      <stop
         style="stop-color:#eeb2b2;stop-opacity:1;"
         offset="0"
         id="stop34" />
    </linearGradient>
    <linearGradient
       id="linearGradient28"
       inkscape:collect="always">
      <stop
         style="stop-color:#ffffff;stop-opacity:1;"
         offset="0.61961389"
         id="stop28" />
      <stop
         style="stop-color:#ffffff;stop-opacity:0.72569728;"
         offset="1"
         id="stop30" />
    </linearGradient>
    <radialGradient
       inkscape:collect="always"
       xlink:href="#linearGradient28"
       id="radialGradient29"
       cx="50"
       cy="42.251503"
       fx="50"
       fy="42.251503"
       r="20.434654"
       gradientTransform="matrix(1,0,0,0.61467139,-9.3476495,6.7440576)"
       gradientUnits="userSpaceOnUse"
       spreadMethod="pad" />
    <linearGradient
       inkscape:collect="always"
       xlink:href="#linearGradient118"
       id="linearGradient119"
       x1="9.3476562"
       y1="50"
       x2="90.652344"
       y2="50"
       gradientUnits="userSpaceOnUse"
       gradientTransform="rotate(90.251069,50,50)" />
  </defs>
  <g
     inkscape:groupmode="layer"
     id="layer2"
     inkscape:label="Layer 2"
     transform="translate(-9.3476495,-9.3476476)">
    <path
       style="color:#000000;fill:url(#linearGradient119);stroke:none;stroke-linejoin:bevel;stroke-opacity:1;-inkscape-stroke:none"
       d="M 90.651954,50.178137 C 90.750302,27.734347 72.621927,9.4463953 50.178137,9.3480466 27.734348,9.2496979 9.4463953,27.378074 9.3480466,49.821863 9.2496979,72.265653 27.378074,90.553605 49.821863,90.651954 72.265653,90.750302 90.553605,72.621926 90.651954,50.178137 Z m -1.304675,-0.0057 C 89.25202,71.910942 71.566103,89.442536 49.82758,89.347278 28.089058,89.25202 10.557464,71.566102 10.652722,49.82758 10.74798,28.089058 28.433898,10.557464 50.17242,10.652722 71.910942,10.74798 89.442537,28.433898 89.347279,50.17242 Z"
       id="path52"
       inkscape:export-filename="./Logo.svg"
       inkscape:export-xdpi="180"
       inkscape:export-ydpi="180" />
  </g>
  <path
     style="-inkscape-font-specification:FreeSans;display:inline;fill:#ffffff;fill-opacity:1;stroke-width:0.451939;stroke-opacity:0"
     d="m 18.010535,52.075121 q 0,0.522559 -0.312156,0.839429 -0.312155,0.316871 -0.82536,0.316871 h -1.740662 v -4.052608 h 1.566067 q 0.322737,0 0.560822,0.100065 0.238084,0.100065 0.354481,0.266839 0.121688,0.161214 0.174595,0.327988 0.0529,0.161215 0.0529,0.333548 0,0.622623 -0.534367,0.883902 0.370354,0.150097 0.534367,0.38358 0.169306,0.233483 0.169306,0.600386 z m -1.433799,-1.15074 q 0.772453,0 0.772453,-0.644859 0,-0.64486 -0.772453,-0.64486 h -0.952338 v 1.289719 z m 0.248667,1.851191 q 0.259247,0 0.423261,-0.116741 0.164014,-0.122301 0.216921,-0.266839 0.0529,-0.144538 0.0529,-0.311311 0,-0.316871 -0.179886,-0.505882 Q 17.158713,51.38023 16.825395,51.38023 H 15.62439 v 1.395342 z m 2.312062,-1.389782 v 1.389782 h 2.27503 v 0.455849 h -2.767071 v -4.052608 h 2.671838 v 0.455849 h -2.179797 v 1.295279 H 21.2379 v 0.455849 z m 5.872749,-2.206977 v 4.052608 h -0.555531 l -1.994619,-3.285448 v 3.285448 h -0.465588 v -4.052608 h 0.534368 l 2.015782,3.313243 v -3.313243 z m 1.33856,2.206977 v 1.389782 h 2.27503 v 0.455849 h -2.767071 v -4.052608 h 2.671837 v 0.455849 h -2.179796 v 1.295279 h 2.100435 v 0.455849 z m 2.857012,1.845631 v -4.052608 h 1.486705 q 0.735416,0 1.153387,0.539237 0.417971,0.539236 0.417971,1.484288 0,0.945052 -0.423262,1.489848 -0.41797,0.539235 -1.148096,0.539235 z m 0.492041,-0.455849 h 0.910011 q 0.571404,0 0.867687,-0.400257 0.296282,-0.400258 0.296282,-1.167418 0,-0.772719 -0.296282,-1.172977 -0.296283,-0.400258 -0.867687,-0.400258 h -0.910011 z m 3.80406,-3.596759 v 4.052608 h -0.497332 v -4.052608 z m 0.656056,2.073557 q 0,-0.277957 0.04233,-0.550354 0.04762,-0.272397 0.174596,-0.567032 0.126978,-0.294634 0.312155,-0.511439 0.190467,-0.222366 0.507914,-0.366903 0.322736,-0.144538 0.724834,-0.144538 1.259203,0 1.486706,1.323074 h -0.502623 q -0.08465,-0.433613 -0.333318,-0.650419 -0.248667,-0.216806 -0.708963,-0.216806 -0.560821,0 -0.888848,0.450289 -0.322737,0.450291 -0.322737,1.228569 0,0.761601 0.338608,1.21189 0.33861,0.444732 0.915304,0.444732 0.476169,0 0.730125,-0.277958 0.253956,-0.283515 0.343899,-0.872783 h 0.507914 q -0.174594,1.606589 -1.58723,1.606589 -0.396807,0 -0.714253,-0.138978 -0.312155,-0.144537 -0.502623,-0.361344 -0.185177,-0.216806 -0.312155,-0.505881 -0.121688,-0.294633 -0.169305,-0.561472 -0.04233,-0.266838 -0.04233,-0.539236 z m 5.460069,-1.617708 v 3.596759 h -0.492041 v -3.596759 h -1.269784 v -0.455849 h 3.026319 v 0.455849 z m 4.666446,0 v 3.596759 h -0.492042 v -3.596759 h -1.269783 v -0.455849 h 3.026318 v 0.455849 z m 4.322556,1.751128 h -1.984038 v 1.845631 h -0.492041 v -4.052608 h 0.492041 v 1.751128 h 1.984038 v -1.751128 h 0.492042 v 4.052608 h -0.492042 z m 1.830598,0 v 1.389782 h 2.27503 v 0.455849 h -2.767071 v -4.052608 h 2.671837 v 0.455849 h -2.179796 v 1.295279 h 2.100435 v 0.455849 z m 3.349054,0.428052 v 1.417579 h -0.49204 v -4.052608 h 0.49204 v 2.05132 l 1.920549,-2.05132 h 0.634892 l -1.571358,1.651063 1.58723,2.401545 h -0.581984 l -1.359727,-2.079116 z m 3.565977,0 v 1.417579 h -0.492042 v -4.052608 h 0.492042 v 2.05132 l 1.920548,-2.05132 h 0.634892 l -1.571358,1.651063 1.587231,2.401545 h -0.581985 l -1.359727,-2.079116 z m 3.565971,-0.428052 v 1.389782 h 2.27503 v 0.455849 h -2.767071 v -4.052608 h 2.671838 v 0.455849 h -2.179797 v 1.295279 h 2.100435 v 0.455849 z m 3.349055,-2.206977 v 3.596759 h 1.904676 v 0.455849 h -2.396717 v -4.052608 z"
     id="text1"
     aria-label="BENEDICT THEKKEL" />
  <path
     d="m 38.963828,38.107807 q 0,3.239221 -2.033128,5.20343 -2.033129,1.964208 -5.375729,1.964208 H 20.217696 V 20.154251 h 10.200101 q 2.102048,0 3.652739,0.620276 1.550691,0.620277 2.308807,1.654071 0.792575,0.999334 1.137173,2.033128 0.344598,0.999334 0.344598,2.067588 0,3.859498 -3.48044,5.479108 2.412187,0.930415 3.48044,2.377726 1.102714,1.447312 1.102714,3.721659 z m -9.338606,-7.133179 q 5.031131,0 5.031131,-3.997337 0,-3.997337 -5.031131,-3.997337 h -6.202764 v 7.994674 z m 1.619611,11.475114 q 1.68853,0 2.756784,-0.723656 1.068253,-0.758116 1.412852,-1.65407 0.344598,-0.895955 0.344598,-1.929749 0,-1.964209 -1.171634,-3.135842 -1.171633,-1.206093 -3.342599,-1.206093 h -7.822375 v 8.64941 z M 52.851112,22.979954 V 45.275445 H 49.646351 V 22.979954 h -8.270352 v -2.825703 h 19.711006 v 2.825703 z"
     id="text2"
     style="-inkscape-font-specification:FreeSans;fill:url(#radialGradient29);stroke-width:1.972;stroke-opacity:0.988206"
     aria-label="BT" />
</svg>
